{"title":"Man.of.Steel.2013.TS.1080p.AC3-MURDER","uid":8656489,"size":2716251327,"categoryP":"video","categoryS":"hd___movies","magnet":"?xt=urn:btih:f03cc7216f917ce1380566638f49b1e088216661&amp;dn=Man.of.Steel.2013.TS.1080p.AC3-MURDER&amp;tr=udp%3A%2F%2Ftracker.openbittorrent.com%3A80&amp;tr=udp%3A%2F%2Fopen.demonii.com%3A1337&amp;tr=udp%3A%2F%2Ftracker.coppersurfer.tk%3A6969&amp;tr=udp%3A%2F%2Fexodus.desync.com%3A6969","seeders":0,"leechers":1,"uploader":"Thhaque","files":-1,"time":1373228123,"description":"Man.of.Steel.2013.TS.1080p.AC3-MURDER\n\nPoster: &lt;a href=&quot;\nhttp://s20.postimg.org/ej9b40nl7/Man_of_steel_2.jpg&quot; rel=&quot;nofollow&quot; target=&quot;_NEW&quot;&gt;\nhttp://s20.postimg.org/ej9b40nl7/Man_of_steel_2.jpg&lt;/a&gt;\n\nGenre: Action, Adventure, Fantasy, Sci-Fi\nYear: 2013\nCountry: USA,Canada,UK\nDirector: Zack Snyder \nCasts: Henry Cavill, Russell Crowe, Amy Adams, Kevin Costner, Michael Shannon, Diane Lane, Laurence Fishburne, Christopher Meloni, Jadin Gould, Ayelet Zurer, Tahmoh Penikett, Michael Kelly, Richard Schiff, Antje Traue, David Paetkau\n\n\nGeneral\nComplete name                            : MAN OF STEEL 2013 R6-1080P AC3 MURDER.mkv\nFormat                                   : Matroska\nFormat version                           : Version 2\nFile size                                : 2.52 GiB\nDuration                                 : 2h 22mn\nOverall bit rate                         : 2 524 Kbps\nEncoded date                             : UTC 2013-07-07 11:55:58\n\nVideo\nID                                       : 1\nFormat                                   : AVC\nFormat/Info                              : Advanced Video Codec\nFormat profile                           : &lt;a class=&quot;__cf_email__&quot; href=&quot;/cdn-cgi/l/email-protection&quot; data-cfemail=&quot;9fd7f6f8f7dfd3acb1af&quot;&gt;[email&amp;#160;protected]&lt;/a&gt;&lt;script cf-hash='f9e31' type=&quot;text/javascript&quot;&gt;\n/* &lt;![CDATA[ */!function(){try{var t=&quot;currentScript&quot;in document?document.currentScript:function(){for(var t=document.getElementsByTagName(&quot;script&quot;),e=t.length;e--;)if(t[e].getAttribute(&quot;cf-hash&quot;))return t[e]}();if(t&amp;&amp;t.previousSibling){var e,r,n,i,c=t.previousSibling,a=c.getAttribute(&quot;data-cfemail&quot;);if(a){for(e=&quot;&quot;,r=parseInt(a.substr(0,2),16),n=2;a.length-n;n+=2)i=parseInt(a.substr(n,2),16)^r,e+=String.fromCharCode(i);e=document.createTextNode(e),c.parentNode.replaceChild(e,c)}}}catch(u){}}();/* ]]&gt; */&lt;/script&gt;\nFormat settings, CABAC                   : No\nFormat settings, ReFrames                : 1 frame\nCodec ID                                 : V_MPEG4/ISO/AVC\nDuration                                 : 2h 22mn\nBit rate                                 : 2 400 Kbps\nWidth                                    : 1 920 pixels\nHeight                                   : 804 pixels\nDisplay aspect ratio                     : 2.40:1\nFrame rate mode                          : Constant\nFrame rate                               : 29.970 fps\nColor space                              : YUV\nChroma subsampling                       : 4:2:0\nBit depth                                : 8 bits\nScan type                                : Progressive\nBits/(Pixel*Frame)                       : 0.052\nStream size                              : 2.34 GiB (93%)\nWriting library                          : x264 core \nDefault                                  : Yes\nForced                                   : No\n\nAudio\nID                                       : 2\nFormat                                   : AC-3\nFormat/Info                              : Audio Coding 3\nMode extension                           : CM (complete main)\nFormat settings, Endianness              : Big\nCodec ID                                 : A_AC3\nDuration                                 : 2h 22mn\nBit rate mode                            : Constant\nBit rate                                 : 128 Kbps\nChannel(s)                               : 2 channels\nChannel positions                        : Front: L R\nSampling rate                            : 44.1 KHz\nBit depth                                : 16 bits\nCompression mode                         : Lossy\nDelay relative to video                  : 34ms\nStream size                              : 131 MiB (5%)\nDefault                                  : Yes\nForced                                   : No\n\n\n.: Plot :.\nA child, sent to Earth from a dying planet, is adopted by a couple in rural Kansas. Posing as a journalist, he uses his extraordinary powers to protect his new home from an insidious evil.\n\nScreenshots: &lt;a href=&quot;\nhttp://s20.postimg.org/liib69h7x/74c991213556a04d.png&quot; rel=&quot;nofollow&quot; target=&quot;_NEW&quot;&gt;\nhttp://s20.postimg.org/liib69h7x/74c991213556a04d.png&lt;/a&gt; &lt;a href=&quot;\nhttp://s20.postimg.org/k4qoayhyl/988dbed55194b6a3.png&quot; rel=&quot;nofollow&quot; target=&quot;_NEW&quot;&gt;\nhttp://s20.postimg.org/k4qoayhyl/988dbed55194b6a3.png&lt;/a&gt; &lt;a href=&quot;\nhttp://s20.postimg.org/47rwe8pkd/6dbec41983db38e5.png&quot; rel=&quot;nofollow&quot; target=&quot;_NEW&quot;&gt;\nhttp://s20.postimg.org/47rwe8pkd/6dbec41983db38e5.png&lt;/a&gt; &lt;a href=&quot;\nhttp://s20.postimg.org/crbabzxwt/1ec7752a2628e629.png&quot; rel=&quot;nofollow&quot; target=&quot;_NEW&quot;&gt;\nhttp://s20.postimg.org/crbabzxwt/1ec7752a2628e629.png&lt;/a&gt;","torrent":{"xt":"urn:btih:f03cc7216f917ce1380566638f49b1e088216661","amp;dn":"Man.of.Steel.2013.TS.1080p.AC3-MURDER","amp;tr":["udp%3A%2F%2Ftracker.openbittorrent.com%3A80","udp%3A%2F%2Fopen.demonii.com%3A1337","udp%3A%2F%2Ftracker.coppersurfer.tk%3A6969","udp%3A%2F%2Fexodus.desync.com%3A6969"],"infoHash":"f03cc7216f917ce1380566638f49b1e088216661","infoHashBuffer":{"type":"Buffer","data":[240,60,199,33,111,145,124,225,56,5,102,99,143,73,177,224,136,33,102,97]},"announce":[],"urlList":[]}}